<?xml version="1.0" standalone="no"?>
<svg version="1.0" xmlns="http://www.w3.org/2000/svg"
 width="512.000000pt" height="512.000000pt" viewBox="0 0 512.000000 512.000000"
 preserveAspectRatio="xMidYMid meet">

<g transform="translate(0.000000,512.000000) scale(0.100000,-0.100000)"
fill="#9a35ed" stroke="none">
<path d="M2350 5106 c-95 -26 -169 -76 -219 -149 -15 -23 -67 -139 -116 -257
-106 -262 -108 -266 -153 -313 -30 -31 -55 -43 -134 -68 -104 -32 -128 -51
-128 -101 0 -43 34 -71 78 -65 99 13 207 56 274 109 42 33 54 30 74 -18 21
-49 20 -1672 0 -1634 -41 75 -429 1009 -451 1085 -34 116 -45 209 -34 272 16
86 -25 139 -89 117 -44 -15 -62 -65 -62 -174 0 -106 19 -196 75 -360 84 -246
97 -395 49 -590 -35 -144 -44 -379 -20 -532 22 -137 56 -264 106 -392 22 -56
40 -105 40 -109 0 -4 -47 -7 -105 -7 -84 0 -113 -4 -143 -19 -70 -36 -112
-102 -112 -177 0 -46 0 -47 -20 -29 -11 10 -29 36 -40 59 -19 40 -20 61 -20
374 l0 332 33 0 c81 0 157 44 183 107 45 106 -30 257 -145 292 -24 7 -121 11
-253 11 -211 0 -215 0 -266 -26 -59 -29 -94 -70 -117 -133 -20 -57 -19 -97 4
-147 23 -50 61 -81 118 -95 l43 -11 0 -369 c0 -364 0 -369 25 -446 63 -199
236 -355 440 -398 55 -11 158 -15 470 -15 l400 -1 103 -91 102 -91 0 -117 0
-118 -477 -117 c-593 -145 -575 -140 -613 -171 -34 -30 -60 -73 -60 -103 0
-11 -16 -31 -39 -48 -63 -45 -85 -86 -89 -162 -3 -80 20 -129 86 -176 39 -26
52 -30 112 -30 60 0 74 4 111 30 55 39 89 103 89 167 0 62 -27 115 -82 162
-24 21 -38 40 -32 45 11 10 1081 271 1112 271 22 0 22 -1 22 -141 l0 -141 -46
-41 c-55 -48 -74 -88 -74 -155 0 -65 34 -129 88 -167 38 -26 52 -30 112 -30
60 0 74 4 111 30 55 39 89 103 89 167 0 67 -19 107 -74 155 l-46 41 0 141 c0
140 0 141 23 141 31 0 1100 -261 1111 -271 6 -5 -7 -23 -32 -45 -55 -47 -82
-100 -82 -162 0 -64 34 -128 89 -167 37 -26 51 -30 111 -30 60 0 74 4 112 30
66 47 89 96 86 176 -4 77 -30 124 -90 164 -26 17 -38 33 -38 49 0 31 -38 85
-77 112 -18 12 -78 33 -135 47 -57 14 -291 71 -520 127 l-418 102 0 117 0 117
103 92 102 91 400 1 c449 0 489 5 615 66 97 48 210 160 257 254 50 99 63 166
63 317 0 123 -1 134 -22 153 -35 32 -89 25 -110 -14 -7 -12 -15 -82 -18 -161
-5 -131 -8 -145 -38 -208 -39 -85 -125 -172 -204 -210 -56 -26 -183 -56 -193
-45 -3 3 3 27 13 54 17 43 24 49 69 65 100 34 177 101 225 198 23 45 23 53 26
403 l3 358 49 0 48 0 4 -106 c3 -102 4 -107 31 -130 34 -29 56 -30 91 -3 25
20 26 24 26 129 l0 108 43 11 c57 14 95 45 118 95 23 50 24 90 4 145 -22 62
-61 107 -118 136 -50 25 -55 25 -273 25 -172 0 -229 -3 -257 -15 -112 -47
-176 -185 -133 -288 26 -63 102 -107 184 -107 l32 0 0 -332 c0 -313 -1 -334
-20 -374 -11 -23 -29 -49 -40 -59 -20 -18 -20 -17 -20 29 0 51 -25 109 -62
142 -48 45 -82 54 -193 54 -58 0 -105 4 -105 9 0 4 14 41 31 82 45 109 95 289
114 414 25 157 16 390 -19 535 -20 80 -26 131 -26 215 0 127 11 180 80 390 27
83 54 178 60 213 12 71 15 194 4 238 -13 57 -68 146 -118 190 -62 56 -115 84
-228 118 -128 39 -147 64 -258 336 -48 118 -97 234 -108 257 -48 93 -134 161
-237 188 -74 19 -357 20 -425 1z m443 -169 c26 -15 58 -45 71 -65 14 -20 61
-128 107 -240 l82 -203 -35 -37 c-20 -20 -46 -57 -59 -82 l-24 -45 -3 -1172
-2 -1173 -370 0 -370 0 -2 1168 -3 1167 -23 50 c-13 28 -39 67 -59 87 l-36 37
83 203 c92 227 108 258 152 289 61 44 93 49 273 46 166 -2 171 -3 218 -30z
m369 -673 c42 -34 116 -71 174 -85 107 -26 190 -83 224 -154 39 -80 25 -224
-38 -405 -22 -61 -415 -990 -431 -1017 -7 -13 -10 237 -8 807 2 772 3 828 20
853 9 15 20 27 23 27 3 0 20 -11 36 -26z m-1298 -1663 l176 -414 0 -134 0
-133 -114 0 -114 0 -45 108 c-63 148 -95 257 -119 397 -27 159 -22 355 12 497
13 54 25 97 26 95 1 -1 82 -189 178 -416z m1623 94 c9 -224 -32 -426 -134
-667 l-45 -108 -114 0 -114 0 0 133 0 132 177 419 178 419 23 -94 c17 -66 25
-135 29 -234z m-2231 -2 c16 -17 24 -36 22 -52 l-3 -26 -230 -3 c-126 -1 -240
0 -252 3 -31 7 -29 36 3 74 l26 31 204 0 205 0 25 -27z m3068 -4 c32 -38 34
-67 4 -74 -13 -3 -126 -4 -253 -3 l-230 3 -3 27 c-2 19 5 36 22 53 l25 25 205
0 204 0 26 -31z m-3274 -571 c1 -298 3 -349 18 -390 38 -104 126 -190 231
-226 49 -16 55 -22 73 -66 10 -27 16 -51 13 -54 -10 -11 -140 20 -194 45 -78
37 -164 126 -204 210 l-32 68 -3 378 -3 377 51 0 50 0 0 -342z m818 -365 c-3
-10 -27 -98 -53 -196 l-48 -179 -98 4 c-73 2 -102 7 -114 19 -19 18 -125 295
-125 325 0 41 14 44 233 44 195 0 209 -1 205 -17z m1274 -163 c26 -96 47 -183
48 -192 0 -17 -37 -18 -630 -18 -551 0 -630 2 -630 15 0 13 82 328 95 363 3
10 116 12 537 10 l532 -3 48 -175z m536 168 c7 -7 12 -21 12 -33 0 -29 -106
-306 -125 -324 -12 -12 -41 -17 -114 -19 l-98 -4 -48 179 c-26 98 -50 186 -53
196 -4 16 10 17 205 17 149 0 212 -3 221 -12z m-962 -568 l-43 -40 -115 0
-114 0 -39 40 -39 40 197 0 197 0 -44 -40z m-86 -275 l0 -85 -70 0 -70 0 0 85
0 85 70 0 70 0 0 -85z m-1342 -671 c37 -26 20 -94 -24 -94 -53 0 -75 64 -32
94 12 9 25 16 28 16 3 0 16 -7 28 -16z m1300 0 c39 -27 19 -94 -28 -94 -47 0
-67 67 -28 94 12 9 25 16 28 16 3 0 16 -7 28 -16z m1300 0 c43 -30 21 -94 -32
-94 -22 0 -46 28 -46 55 0 20 32 55 50 55 3 0 16 -7 28 -16z"/>
<path d="M2407 4699 c-45 -26 -39 -106 9 -128 14 -6 78 -11 149 -11 115 0 126
2 151 23 35 31 38 82 5 109 -20 16 -42 18 -160 18 -76 0 -144 -5 -154 -11z"/>
<path d="M2310 4070 c-23 -23 -26 -68 -7 -93 6 -9 59 -45 117 -79 135 -79 145
-79 275 -4 55 32 108 67 118 78 23 27 22 73 -3 98 -32 32 -73 25 -164 -29
l-84 -49 -86 49 c-94 54 -134 61 -166 29z"/>
<path d="M2316 3719 c-34 -27 -36 -77 -3 -106 43 -39 218 -133 248 -133 30 0
202 93 247 133 32 29 30 79 -4 106 -15 12 -35 21 -45 21 -11 0 -60 -23 -109
-51 l-90 -51 -90 51 c-49 28 -98 51 -109 51 -10 0 -30 -9 -45 -21z"/>
<path d="M2310 3360 c-25 -25 -26 -71 -2 -97 9 -11 62 -46 117 -78 129 -76
141 -76 270 0 55 32 108 64 118 73 24 21 22 77 -3 102 -31 31 -71 24 -164 -29
l-86 -50 -84 50 c-92 54 -134 61 -166 29z"/>
<path d="M2316 3009 c-34 -27 -36 -77 -3 -106 42 -39 218 -133 248 -133 29 0
211 96 250 133 29 27 25 81 -8 107 -36 28 -57 23 -161 -35 l-82 -47 -90 51
c-49 28 -98 51 -109 51 -10 0 -30 -9 -45 -21z"/>
<path d="M2310 2650 c-22 -22 -26 -60 -10 -90 12 -23 232 -150 260 -150 21 0
218 108 253 138 24 21 22 77 -3 102 -31 31 -71 24 -164 -29 l-85 -50 -86 50
c-94 53 -133 61 -165 29z"/>
</g>
</svg>
