<?xml version="1.0" standalone="no"?>
<svg version="1.0" xmlns="http://www.w3.org/2000/svg"
 width="512.000000pt" height="512.000000pt" viewBox="0 0 512.000000 512.000000"
 preserveAspectRatio="xMidYMid meet">

<g transform="translate(0.000000,512.000000) scale(0.100000,-0.100000)"
fill="#9a35ed" stroke="none">
<path d="M2484 4353 c14 -105 87 -201 185 -247 42 -19 68 -21 306 -26 216 -4
265 -8 290 -22 105 -57 126 -202 43 -303 -55 -66 -70 -69 -303 -76 -250 -6
-289 -17 -383 -104 -100 -93 -142 -199 -142 -362 l0 -93 -1047 -2 -1048 -3
-67 -32 c-93 -44 -151 -100 -196 -191 l-37 -76 0 -936 0 -936 37 -76 c45 -91
103 -147 196 -191 l67 -32 2175 0 2175 0 67 32 c93 44 151 100 196 191 l37 76
0 936 0 936 -37 76 c-45 91 -103 147 -196 191 l-67 32 -1047 3 -1048 2 0 86
c0 147 34 223 125 279 l48 30 216 5 c207 5 218 6 271 31 83 40 135 90 175 172
84 169 43 354 -98 451 -83 56 -139 66 -389 66 -162 0 -227 4 -251 14 -43 17
-85 68 -93 111 l-6 35 -80 0 -81 0 7 -47z m2230 -1405 c55 -16 138 -99 154
-154 17 -59 17 -1769 0 -1828 -16 -55 -99 -138 -154 -154 -60 -18 -4248 -18
-4308 0 -55 16 -138 99 -154 154 -17 59 -17 1769 0 1828 15 51 99 137 148 153
53 17 4257 18 4314 1z"/>
<path d="M425 2775 c-24 -23 -25 -28 -25 -175 0 -147 1 -152 25 -175 23 -24
28 -25 175 -25 147 0 152 1 175 25 24 23 25 28 25 175 0 147 -1 152 -25 175
-23 24 -28 25 -175 25 -147 0 -152 -1 -175 -25z m215 -175 l0 -40 -40 0 -40 0
0 40 0 40 40 0 40 0 0 -40z"/>
<path d="M905 2775 c-24 -23 -25 -28 -25 -175 0 -147 1 -152 25 -175 23 -24
28 -25 175 -25 147 0 152 1 175 25 24 23 25 28 25 175 0 147 -1 152 -25 175
-23 24 -28 25 -175 25 -147 0 -152 -1 -175 -25z m215 -175 l0 -40 -40 0 -40 0
0 40 0 40 40 0 40 0 0 -40z"/>
<path d="M1385 2775 c-24 -23 -25 -28 -25 -175 0 -147 1 -152 25 -175 23 -24
28 -25 175 -25 147 0 152 1 175 25 24 23 25 28 25 175 0 147 -1 152 -25 175
-23 24 -28 25 -175 25 -147 0 -152 -1 -175 -25z m215 -175 l0 -40 -40 0 -40 0
0 40 0 40 40 0 40 0 0 -40z"/>
<path d="M1865 2775 c-24 -23 -25 -28 -25 -175 0 -147 1 -152 25 -175 23 -24
28 -25 175 -25 147 0 152 1 175 25 24 23 25 28 25 175 0 147 -1 152 -25 175
-23 24 -28 25 -175 25 -147 0 -152 -1 -175 -25z m215 -175 l0 -40 -40 0 -40 0
0 40 0 40 40 0 40 0 0 -40z"/>
<path d="M2345 2775 c-24 -23 -25 -28 -25 -175 0 -147 1 -152 25 -175 23 -24
28 -25 175 -25 147 0 152 1 175 25 24 23 25 28 25 175 0 147 -1 152 -25 175
-23 24 -28 25 -175 25 -147 0 -152 -1 -175 -25z m215 -175 l0 -40 -40 0 -40 0
0 40 0 40 40 0 40 0 0 -40z"/>
<path d="M2825 2775 c-24 -23 -25 -28 -25 -175 0 -147 1 -152 25 -175 23 -24
28 -25 175 -25 147 0 152 1 175 25 24 23 25 28 25 175 0 147 -1 152 -25 175
-23 24 -28 25 -175 25 -147 0 -152 -1 -175 -25z m215 -175 l0 -40 -40 0 -40 0
0 40 0 40 40 0 40 0 0 -40z"/>
<path d="M3305 2775 c-24 -23 -25 -28 -25 -175 0 -147 1 -152 25 -175 23 -24
28 -25 175 -25 147 0 152 1 175 25 24 23 25 28 25 175 0 147 -1 152 -25 175
-23 24 -28 25 -175 25 -147 0 -152 -1 -175 -25z m215 -175 l0 -40 -40 0 -40 0
0 40 0 40 40 0 40 0 0 -40z"/>
<path d="M3785 2775 c-24 -23 -25 -28 -25 -175 0 -147 1 -152 25 -175 23 -24
28 -25 175 -25 147 0 152 1 175 25 24 23 25 28 25 175 0 147 -1 152 -25 175
-23 24 -28 25 -175 25 -147 0 -152 -1 -175 -25z m215 -175 l0 -40 -40 0 -40 0
0 40 0 40 40 0 40 0 0 -40z"/>
<path d="M4265 2775 c-24 -23 -25 -28 -25 -175 0 -147 1 -152 25 -175 24 -25
26 -25 215 -25 189 0 191 0 215 25 24 23 25 28 25 175 0 147 -1 152 -25 175
-24 25 -26 25 -215 25 -189 0 -191 0 -215 -25z m295 -175 l0 -40 -80 0 -80 0
0 40 0 40 80 0 80 0 0 -40z"/>
<path d="M425 2295 c-24 -23 -25 -28 -25 -175 0 -147 1 -152 25 -175 23 -24
28 -25 175 -25 147 0 152 1 175 25 24 23 25 28 25 175 0 147 -1 152 -25 175
-23 24 -28 25 -175 25 -147 0 -152 -1 -175 -25z m215 -175 l0 -40 -40 0 -40 0
0 40 0 40 40 0 40 0 0 -40z"/>
<path d="M905 2295 c-24 -23 -25 -28 -25 -175 0 -147 1 -152 25 -175 23 -24
28 -25 175 -25 206 0 200 -6 200 200 0 147 -1 152 -25 175 -23 24 -28 25 -175
25 -147 0 -152 -1 -175 -25z m215 -175 l0 -40 -40 0 -40 0 0 40 0 40 40 0 40
0 0 -40z"/>
<path d="M1385 2295 c-24 -23 -25 -28 -25 -175 0 -147 1 -152 25 -175 23 -24
28 -25 175 -25 147 0 152 1 175 25 24 23 25 28 25 175 0 147 -1 152 -25 175
-23 24 -28 25 -175 25 -147 0 -152 -1 -175 -25z m215 -175 l0 -40 -40 0 -40 0
0 40 0 40 40 0 40 0 0 -40z"/>
<path d="M1865 2295 c-24 -23 -25 -28 -25 -175 0 -147 1 -152 25 -175 23 -24
28 -25 175 -25 147 0 152 1 175 25 24 23 25 28 25 175 0 147 -1 152 -25 175
-23 24 -28 25 -175 25 -147 0 -152 -1 -175 -25z m215 -175 l0 -40 -40 0 -40 0
0 40 0 40 40 0 40 0 0 -40z"/>
<path d="M2345 2295 c-24 -23 -25 -28 -25 -175 0 -147 1 -152 25 -175 23 -24
28 -25 175 -25 147 0 152 1 175 25 24 23 25 28 25 175 0 147 -1 152 -25 175
-23 24 -28 25 -175 25 -147 0 -152 -1 -175 -25z m215 -175 l0 -40 -40 0 -40 0
0 40 0 40 40 0 40 0 0 -40z"/>
<path d="M2825 2295 c-24 -23 -25 -28 -25 -175 0 -147 1 -152 25 -175 23 -24
28 -25 175 -25 147 0 152 1 175 25 24 23 25 28 25 175 0 147 -1 152 -25 175
-23 24 -28 25 -175 25 -147 0 -152 -1 -175 -25z m215 -175 l0 -40 -40 0 -40 0
0 40 0 40 40 0 40 0 0 -40z"/>
<path d="M3305 2295 c-24 -23 -25 -28 -25 -175 0 -147 1 -152 25 -175 23 -24
28 -25 175 -25 147 0 152 1 175 25 24 23 25 28 25 175 0 147 -1 152 -25 175
-23 24 -28 25 -175 25 -147 0 -152 -1 -175 -25z m215 -175 l0 -40 -40 0 -40 0
0 40 0 40 40 0 40 0 0 -40z"/>
<path d="M3785 2295 c-24 -23 -25 -28 -25 -175 0 -147 1 -152 25 -175 23 -24
28 -25 175 -25 147 0 152 1 175 25 24 23 25 28 25 175 0 147 -1 152 -25 175
-23 24 -28 25 -175 25 -147 0 -152 -1 -175 -25z m215 -175 l0 -40 -40 0 -40 0
0 40 0 40 40 0 40 0 0 -40z"/>
<path d="M4345 2295 c-25 -24 -25 -24 -25 -240 l0 -215 -215 0 c-282 0 -265
12 -265 -200 0 -147 1 -152 25 -175 l24 -25 391 0 391 0 24 25 25 24 0 391 0
391 -25 24 c-23 24 -28 25 -175 25 -147 0 -152 -1 -175 -25z m215 -415 l0
-280 -280 0 -280 0 0 40 0 40 215 0 c288 0 265 -23 265 265 l0 215 40 0 40 0
0 -280z"/>
<path d="M425 1815 c-24 -23 -25 -28 -25 -175 0 -147 1 -152 25 -175 l24 -25
351 0 351 0 24 25 c24 23 25 28 25 175 0 147 -1 152 -25 175 l-24 25 -351 0
-351 0 -24 -25z m615 -175 l0 -40 -240 0 -240 0 0 40 0 40 240 0 240 0 0 -40z"/>
<path d="M1385 1815 c-24 -23 -25 -28 -25 -175 0 -147 1 -152 25 -175 23 -24
28 -25 175 -25 147 0 152 1 175 25 24 23 25 28 25 175 0 147 -1 152 -25 175
-23 24 -28 25 -175 25 -147 0 -152 -1 -175 -25z m215 -175 l0 -40 -40 0 -40 0
0 40 0 40 40 0 40 0 0 -40z"/>
<path d="M1865 1815 c-24 -23 -25 -28 -25 -175 0 -147 1 -152 25 -175 23 -24
28 -25 175 -25 147 0 152 1 175 25 24 23 25 28 25 175 0 147 -1 152 -25 175
-23 24 -28 25 -175 25 -147 0 -152 -1 -175 -25z m215 -175 l0 -40 -40 0 -40 0
0 40 0 40 40 0 40 0 0 -40z"/>
<path d="M2345 1815 c-24 -23 -25 -28 -25 -175 0 -147 1 -152 25 -175 23 -24
28 -25 175 -25 147 0 152 1 175 25 24 23 25 28 25 175 0 147 -1 152 -25 175
-23 24 -28 25 -175 25 -147 0 -152 -1 -175 -25z m215 -175 l0 -40 -40 0 -40 0
0 40 0 40 40 0 40 0 0 -40z"/>
<path d="M2825 1815 c-24 -23 -25 -28 -25 -175 0 -147 1 -152 25 -175 23 -24
28 -25 175 -25 147 0 152 1 175 25 24 23 25 28 25 175 0 147 -1 152 -25 175
-23 24 -28 25 -175 25 -147 0 -152 -1 -175 -25z m215 -175 l0 -40 -40 0 -40 0
0 40 0 40 40 0 40 0 0 -40z"/>
<path d="M3305 1815 c-24 -23 -25 -28 -25 -175 0 -147 1 -152 25 -175 23 -24
28 -25 175 -25 147 0 152 1 175 25 24 23 25 28 25 175 0 147 -1 152 -25 175
-23 24 -28 25 -175 25 -147 0 -152 -1 -175 -25z m215 -175 l0 -40 -40 0 -40 0
0 40 0 40 40 0 40 0 0 -40z"/>
<path d="M425 1335 c-24 -23 -25 -28 -25 -175 0 -147 1 -152 25 -175 23 -24
28 -25 175 -25 147 0 152 1 175 25 24 23 25 28 25 175 0 147 -1 152 -25 175
-23 24 -28 25 -175 25 -147 0 -152 -1 -175 -25z m215 -175 l0 -40 -40 0 -40 0
0 40 0 40 40 0 40 0 0 -40z"/>
<path d="M905 1335 c-24 -23 -25 -28 -25 -175 0 -147 1 -152 25 -175 l24 -25
1391 0 1391 0 24 25 c24 23 25 28 25 175 0 147 -1 152 -25 175 l-24 25 -1391
0 -1391 0 -24 -25z m2695 -175 l0 -40 -1280 0 -1280 0 0 40 0 40 1280 0 1280
0 0 -40z"/>
<path d="M3865 1335 c-24 -23 -25 -28 -25 -175 0 -147 1 -152 25 -175 23 -24
28 -25 175 -25 147 0 152 1 175 25 24 23 25 28 25 175 0 147 -1 152 -25 175
-23 24 -28 25 -175 25 -147 0 -152 -1 -175 -25z m215 -175 l0 -40 -40 0 -40 0
0 40 0 40 40 0 40 0 0 -40z"/>
<path d="M4345 1335 c-24 -23 -25 -28 -25 -175 0 -147 1 -152 25 -175 23 -24
28 -25 175 -25 147 0 152 1 175 25 24 23 25 28 25 175 0 147 -1 152 -25 175
-23 24 -28 25 -175 25 -147 0 -152 -1 -175 -25z m215 -175 l0 -40 -40 0 -40 0
0 40 0 40 40 0 40 0 0 -40z"/>
</g>
</svg>
