<?xml version="1.0" standalone="no"?>
<svg version="1.0" xmlns="http://www.w3.org/2000/svg"
 width="512.000000pt" height="512.000000pt" viewBox="0 0 512.000000 512.000000"
 preserveAspectRatio="xMidYMid meet">

<g transform="translate(0.000000,512.000000) scale(0.100000,-0.100000)"
fill="#9a35ed" stroke="none">
<path d="M386 4709 c-62 -15 -153 -68 -197 -116 -22 -24 -55 -74 -72 -111
l-32 -67 0 -1376 0 -1375 37 -76 c45 -91 103 -147 196 -191 l67 -32 630 -3
631 -3 124 -124 123 -124 -85 -114 -86 -114 -72 -6 c-192 -16 -349 -169 -367
-359 -5 -62 -4 -68 20 -92 l26 -26 1231 0 1231 0 26 26 c24 24 25 30 20 92
-18 190 -175 343 -367 359 l-72 6 -86 114 -85 114 123 124 124 124 631 3 631
3 76 37 c91 45 147 103 191 196 l32 67 0 1375 0 1375 -32 67 c-44 93 -100 151
-191 196 l-76 37 -2155 2 c-1279 0 -2172 -3 -2195 -8z m4328 -161 c55 -16 138
-99 154 -154 17 -60 17 -2648 0 -2708 -16 -55 -99 -138 -154 -154 -60 -18
-4248 -18 -4308 0 -55 16 -138 99 -154 154 -17 60 -17 2648 0 2708 15 51 99
137 148 153 53 17 4257 18 4314 1z m-1549 -3268 l-80 -80 -525 0 -525 0 -80
80 -80 80 685 0 685 0 -80 -80z m-25 -320 l61 -80 -641 0 -641 0 61 80 61 80
519 0 519 0 61 -80z m374 -252 c45 -13 146 -105 146 -132 0 -14 -109 -16
-1100 -16 -991 0 -1100 2 -1100 16 0 24 101 119 140 131 53 16 1858 17 1914 1z"/>
<path d="M425 4375 l-25 -24 0 -1311 0 -1311 25 -24 24 -25 2111 0 2111 0 24
25 25 24 0 1311 0 1311 -25 24 -24 25 -2111 0 -2111 0 -24 -25z m735 -138 c0
-1 -135 -137 -300 -302 l-300 -300 0 303 0 302 300 0 c165 0 300 -1 300 -3z
m395 -167 l-170 -170 58 -57 57 -58 228 228 228 227 202 -2 202 -3 -900 -900
-900 -900 0 485 0 485 417 417 418 418 165 0 165 0 -170 -170z m3005 -1030 l0
-1200 -2000 0 -2000 0 0 182 0 183 1017 1017 1018 1018 982 0 983 0 0 -1200z"/>
<path d="M1142 3657 c-39 -40 -72 -77 -72 -83 0 -13 92 -104 106 -104 5 0 43
34 84 75 l74 75 -54 55 c-30 30 -57 55 -60 55 -3 0 -38 -33 -78 -73z"/>
</g>
</svg>
