<?xml version="1.0" standalone="no"?>
<svg version="1.0" xmlns="http://www.w3.org/2000/svg"
 width="512.000000pt" height="512.000000pt" viewBox="0 0 512.000000 512.000000"
 preserveAspectRatio="xMidYMid meet">

<g transform="translate(0.000000,512.000000) scale(0.100000,-0.100000)"
fill="#9a35ed" stroke="none">
<path d="M1984 5025 c-492 -76 -868 -463 -935 -962 -32 -239 24 -806 117
-1185 l35 -143 -122 -325 -122 -325 93 -375 c103 -416 137 -524 214 -685 131
-274 332 -525 555 -693 444 -334 1039 -334 1482 0 163 123 349 331 463 519
130 216 185 370 311 879 l88 355 -122 325 -122 325 36 149 c94 389 148 940
116 1179 -67 501 -444 888 -938 962 -125 19 -193 19 -220 0 -12 -8 -31 -43
-43 -80 l-22 -65 -288 0 -288 0 -22 65 c-12 37 -31 72 -43 80 -26 18 -108 18
-223 0z m193 -370 c49 -150 80 -226 94 -237 17 -14 40 -18 115 -18 l94 0 0
-89 0 -89 -30 -12 c-42 -17 -104 -90 -118 -138 -17 -55 -17 -729 0 -784 14
-48 76 -121 118 -138 l30 -12 0 -89 c0 -76 -2 -89 -16 -89 -77 0 -189 -88
-212 -166 -17 -58 -17 -730 0 -788 23 -78 135 -166 212 -166 14 0 16 -28 16
-280 l0 -280 80 0 80 0 0 280 c0 264 1 280 18 280 10 0 39 7 65 16 57 19 128
93 145 152 17 55 17 729 0 784 -17 59 -88 133 -145 152 -26 9 -55 16 -65 16
-16 0 -18 10 -18 89 0 82 2 90 21 96 37 12 92 69 115 120 24 49 24 54 24 409
0 246 -4 371 -12 398 -14 48 -76 121 -118 138 l-30 12 0 89 0 89 93 0 c66 0
99 4 114 15 15 11 41 75 93 232 40 120 76 222 80 226 10 11 143 -11 235 -40
136 -43 250 -109 370 -216 l40 -35 -152 -154 c-114 -115 -153 -161 -153 -179
0 -13 36 -166 80 -339 l79 -315 -81 -482 c-67 -398 -80 -487 -70 -507 8 -19
49 -45 151 -96 l140 -69 -38 -98 c-22 -54 -141 -343 -266 -643 -125 -300 -230
-563 -232 -585 -10 -84 38 -173 114 -211 31 -15 69 -20 196 -24 l159 -5 -63
-85 c-81 -110 -263 -290 -362 -358 -102 -71 -226 -127 -345 -159 -84 -23 -118
-26 -257 -27 -177 0 -262 15 -404 73 -204 83 -407 253 -579 484 l-53 72 158 5
c127 4 165 9 196 24 76 38 124 127 114 211 -2 22 -107 285 -232 585 -125 300
-244 589 -266 643 l-38 98 140 69 c101 51 143 77 151 95 9 21 -3 113 -69 509
l-81 484 79 314 c43 172 79 324 79 337 0 18 -39 63 -151 177 -83 84 -149 156
-145 162 14 24 152 127 223 168 111 63 326 128 402 120 9 -1 40 -78 88 -221z
m613 57 c0 -4 -11 -39 -23 -78 l-24 -69 -183 0 -183 0 -24 69 c-12 39 -23 74
-23 78 0 4 104 8 230 8 127 0 230 -4 230 -8z m-1266 -765 l-66 -267 -123 0
-122 0 -7 46 c-11 83 -6 269 9 357 18 102 54 208 103 300 l36 67 119 -118 118
-118 -67 -267z m2336 305 c17 -46 37 -122 45 -169 15 -88 20 -274 9 -357 l-7
-46 -122 0 -123 0 -66 267 -67 267 118 118 117 118 33 -58 c18 -31 46 -94 63
-140z m-1245 -197 c21 -20 25 -34 25 -80 l0 -55 -80 0 -80 0 0 55 c0 67 29
105 80 105 19 0 40 -9 55 -25z m25 -375 l0 -80 -80 0 -80 0 0 80 0 80 80 0 80
0 0 -80z m-1185 -182 c10 -47 135 -811 133 -813 -20 -17 -173 -84 -178 -78
-20 21 -109 372 -145 573 -13 77 -45 308 -45 331 0 5 49 9 115 9 111 0 115 -1
120 -22z m2445 13 c0 -27 -33 -260 -51 -358 -32 -181 -120 -525 -139 -546 -6
-6 -159 61 -178 78 -2 2 123 766 133 813 5 21 9 22 120 22 66 0 115 -4 115 -9z
m-1260 -126 c0 -67 -29 -105 -80 -105 -51 0 -80 38 -80 105 l0 55 80 0 80 0 0
-55z m55 -610 c24 -23 25 -30 25 -144 l0 -119 -80 26 -80 26 -80 -26 -80 -26
0 119 c0 114 1 121 25 144 23 24 31 25 135 25 104 0 112 -1 135 -25z m-1374
-411 c17 -49 139 -348 271 -664 132 -316 243 -585 246 -598 2 -14 -3 -31 -13
-42 -17 -19 -32 -20 -205 -20 l-187 0 -36 77 c-65 139 -78 183 -177 573 l-97
385 76 202 c48 127 78 197 83 189 4 -8 22 -54 39 -102z m2603 -94 l73 -194
-97 -386 c-99 -390 -112 -433 -177 -572 l-36 -78 -185 0 c-159 0 -188 2 -204
17 -10 9 -18 23 -18 32 0 8 104 264 230 568 209 500 257 619 315 778 10 27 20
45 22 40 2 -6 36 -98 77 -205z m-1278 97 l69 -24 3 -147 c2 -144 2 -147 -22
-171 -24 -24 -31 -25 -136 -25 -105 0 -112 1 -136 25 -24 24 -24 27 -22 171
l3 147 65 23 c83 29 92 29 176 1z"/>
</g>
</svg>
