<?xml version="1.0" standalone="no"?>
<svg version="1.0" xmlns="http://www.w3.org/2000/svg"
 width="512.000000pt" height="512.000000pt" viewBox="0 0 512.000000 512.000000"
 preserveAspectRatio="xMidYMid meet">

<g transform="translate(0.000000,512.000000) scale(0.100000,-0.100000)"
fill="#9a35ed" stroke="none">
<path d="M105 3655 l-25 -24 0 -751 0 -751 25 -24 24 -25 296 0 295 0 0 -295
0 -296 25 -24 24 -25 1231 0 1231 0 24 25 c24 23 25 29 25 160 l0 135 80 0 80
0 0 -135 c0 -131 1 -137 25 -160 l24 -25 671 0 671 0 24 25 c24 23 25 29 25
160 l0 135 55 0 c46 0 60 4 80 25 25 24 25 26 25 213 0 224 -2 229 -90 243
-96 15 -145 69 -145 159 0 90 49 144 145 159 88 14 90 19 90 243 0 187 0 189
-25 213 l-24 25 -296 0 -295 0 0 295 0 296 -25 24 -24 25 -2111 0 -2111 0 -24
-25z m4135 -375 l0 -240 -80 0 -80 0 0 135 c0 131 -1 137 -25 160 -24 25 -26
25 -215 25 -189 0 -191 0 -215 -25 -24 -23 -25 -29 -25 -160 l0 -135 -80 0
-80 0 0 135 c0 131 -1 137 -25 160 -24 25 -26 25 -215 25 -189 0 -191 0 -215
-25 -24 -23 -25 -29 -25 -160 l0 -135 -80 0 -80 0 0 135 c0 131 -1 137 -25
160 -24 25 -26 25 -215 25 -189 0 -191 0 -215 -25 -24 -23 -25 -29 -25 -160
l0 -135 -80 0 -80 0 0 135 c0 131 -1 137 -25 160 -24 25 -26 25 -215 25 -189
0 -191 0 -215 -25 -24 -23 -25 -29 -25 -160 l0 -135 -80 0 -80 0 0 135 c0 131
-1 137 -25 160 -24 25 -26 25 -215 25 -189 0 -191 0 -215 -25 -24 -23 -25 -29
-25 -160 l0 -135 -80 0 -80 0 0 135 c0 131 -1 137 -25 160 -24 25 -26 25 -215
25 -189 0 -191 0 -215 -25 l-25 -24 0 -271 0 -271 25 -24 c23 -24 29 -25 160
-25 l135 0 0 -55 c0 -46 4 -60 25 -80 l24 -25 -264 0 -265 0 0 480 0 480 2000
0 2000 0 0 -240z m-3520 -240 l0 -160 -80 0 -80 0 0 160 0 160 80 0 80 0 0
-160z m640 80 l0 -80 -80 0 -80 0 0 80 0 80 80 0 80 0 0 -80z m640 0 l0 -80
-80 0 -80 0 0 80 0 80 80 0 80 0 0 -80z m640 0 l0 -80 -80 0 -80 0 0 80 0 80
80 0 80 0 0 -80z m640 0 l0 -80 -80 0 -80 0 0 80 0 80 80 0 80 0 0 -80z m640
0 l0 -80 -80 0 -80 0 0 80 0 80 80 0 80 0 0 -80z m960 -323 l0 -83 -52 -24
c-64 -29 -126 -89 -158 -155 -20 -41 -25 -65 -25 -135 0 -70 5 -94 25 -135 32
-66 94 -126 158 -155 l52 -24 0 -83 0 -83 -2000 0 -2000 0 0 83 0 83 52 24
c64 29 126 89 158 155 20 41 25 65 25 135 0 70 -5 94 -25 135 -32 66 -94 126
-158 155 l-52 24 0 83 0 83 2000 0 2000 0 0 -83z m-3924 -429 c-7 -39 -31 -74
-70 -102 -26 -20 -42 -21 -337 -24 l-309 -3 0 81 0 80 361 0 362 0 -7 -32z
m2164 -688 l0 -80 -1120 0 -1120 0 0 80 0 80 1120 0 1120 0 0 -80z m1600 0 l0
-80 -560 0 -560 0 0 80 0 80 560 0 560 0 0 -80z"/>
<path d="M1305 2695 l-25 -24 0 -271 0 -271 25 -24 c24 -25 26 -25 215 -25
189 0 191 0 215 25 l25 24 0 271 0 271 -25 24 c-24 25 -26 25 -215 25 -189 0
-191 0 -215 -25z m295 -295 l0 -160 -80 0 -80 0 0 160 0 160 80 0 80 0 0 -160z"/>
<path d="M4025 2695 l-25 -24 0 -271 0 -271 25 -24 c24 -25 26 -25 215 -25
189 0 191 0 215 25 l25 24 0 271 0 271 -25 24 c-24 25 -26 25 -215 25 -189 0
-191 0 -215 -25z m295 -295 l0 -160 -80 0 -80 0 0 160 0 160 80 0 80 0 0 -160z"/>
<path d="M1945 2615 c-25 -24 -25 -26 -25 -215 0 -189 0 -191 25 -215 l24 -25
391 0 391 0 24 25 c25 24 25 26 25 215 0 189 0 191 -25 215 l-24 25 -391 0
-391 0 -24 -25z m695 -215 l0 -80 -280 0 -280 0 0 80 0 80 280 0 280 0 0 -80z"/>
<path d="M2985 2615 c-25 -24 -25 -26 -25 -215 0 -189 0 -191 25 -215 l24 -25
391 0 391 0 24 25 c25 24 25 26 25 215 0 189 0 191 -25 215 l-24 25 -391 0
-391 0 -24 -25z m695 -215 l0 -80 -280 0 -280 0 0 80 0 80 280 0 280 0 0 -80z"/>
</g>
</svg>
