<?xml version="1.0" standalone="no"?>
<svg version="1.0" xmlns="http://www.w3.org/2000/svg"
 width="512.000000pt" height="512.000000pt" viewBox="0 0 512.000000 512.000000"
 preserveAspectRatio="xMidYMid meet">

<g transform="translate(0.000000,512.000000) scale(0.100000,-0.100000)"
fill="#9a35ed" stroke="none">
<path d="M105 5015 l-25 -24 0 -2431 0 -2431 25 -24 24 -25 2431 0 2431 0 24
25 25 24 0 2431 0 2431 -25 24 -24 25 -2431 0 -2431 0 -24 -25z m4775 -2455
l0 -2320 -2320 0 -2320 0 0 2320 0 2320 2320 0 2320 0 0 -2320z"/>
<path d="M397 4722 c-26 -26 -47 -52 -47 -58 0 -5 52 -61 115 -124 l115 -115
57 58 58 57 -115 115 c-63 63 -119 115 -125 115 -6 0 -32 -22 -58 -48z"/>
<path d="M4542 4657 c-61 -62 -112 -117 -112 -123 0 -13 92 -104 106 -104 5 0
61 52 124 115 l114 115 -54 55 c-30 30 -57 55 -60 55 -3 0 -56 -51 -118 -113z"/>
<path d="M1005 4548 c-27 -5 -86 -27 -131 -48 -152 -73 -274 -232 -303 -394
-15 -83 -15 -3009 0 -3092 35 -194 186 -361 389 -430 53 -18 116 -19 1600 -19
1484 0 1547 1 1600 19 182 62 311 188 372 364 l23 67 0 1545 c0 1484 -1 1547
-19 1600 -31 92 -76 166 -136 229 -65 66 -121 102 -219 140 l-66 26 -1530 1
c-930 1 -1550 -2 -1580 -8z m3167 -190 c91 -45 147 -103 191 -196 l32 -67 0
-1535 0 -1535 -32 -67 c-44 -93 -100 -151 -191 -196 l-76 -37 -1535 0 -1536 0
-67 32 c-93 44 -151 100 -196 191 l-37 76 0 1535 0 1536 32 67 c17 37 50 87
72 111 44 48 135 101 197 116 23 5 661 9 1555 8 l1515 -2 76 -37z"/>
<path d="M1040 4227 c-49 -16 -133 -102 -148 -153 -17 -60 -17 -2968 0 -3028
16 -55 99 -138 154 -154 32 -9 387 -12 1516 -12 1666 0 1533 -7 1611 80 24 26
49 66 55 88 17 57 17 2967 0 3024 -6 22 -31 62 -55 88 -78 87 57 80 -1617 79
-1049 -1 -1491 -4 -1516 -12z m1280 -227 l0 -80 -375 0 -376 0 -24 -25 c-25
-24 -25 -26 -25 -215 0 -259 21 -240 -265 -240 l-215 0 0 295 0 296 25 24 24
25 616 0 615 0 0 -80z m1735 55 l25 -24 0 -1096 0 -1095 -216 0 c-257 0 -279
-5 -349 -75 -66 -65 -75 -99 -75 -269 l0 -136 -375 0 -376 0 -24 -25 c-24 -23
-25 -29 -25 -160 l0 -135 -775 0 -776 0 -24 25 -25 24 0 1096 0 1095 218 0
c261 0 289 6 355 80 57 64 67 101 67 264 l0 136 375 0 376 0 24 25 c24 23 25
29 25 160 l0 135 775 0 776 0 24 -25z m25 -2670 l0 -296 -25 -24 -24 -25 -616
0 -615 0 0 80 0 80 375 0 376 0 24 25 c25 24 25 26 25 215 0 259 -21 240 265
240 l215 0 0 -295z"/>
<path d="M2640 3840 l0 -80 80 0 80 0 0 80 0 80 -80 0 -80 0 0 -80z"/>
<path d="M2960 3840 l0 -80 80 0 80 0 0 80 0 80 -80 0 -80 0 0 -80z"/>
<path d="M3280 3840 l0 -80 80 0 80 0 0 80 0 80 -80 0 -80 0 0 -80z"/>
<path d="M3600 3840 l0 -80 80 0 80 0 0 80 0 80 -80 0 -80 0 0 -80z"/>
<path d="M1986 3429 c-62 -15 -153 -68 -197 -116 -22 -24 -55 -74 -72 -111
l-32 -67 0 -575 0 -575 32 -67 c44 -93 100 -151 191 -196 l76 -37 575 0 576 0
67 32 c93 44 151 100 196 191 l37 76 0 576 0 576 -37 76 c-45 91 -103 147
-196 191 l-67 32 -555 2 c-315 1 -572 -3 -594 -8z m1128 -161 c55 -16 138 -99
154 -154 17 -59 17 -1049 0 -1108 -16 -55 -99 -138 -154 -154 -59 -17 -1049
-17 -1108 0 -55 16 -138 99 -154 154 -17 59 -17 1049 0 1108 15 51 99 137 148
153 52 16 1059 17 1114 1z"/>
<path d="M2000 3040 l0 -80 80 0 80 0 0 80 0 80 -80 0 -80 0 0 -80z"/>
<path d="M2320 3040 l0 -80 80 0 80 0 0 80 0 80 -80 0 -80 0 0 -80z"/>
<path d="M2640 3040 l0 -80 80 0 80 0 0 80 0 80 -80 0 -80 0 0 -80z"/>
<path d="M2960 3040 l0 -80 80 0 80 0 0 80 0 80 -80 0 -80 0 0 -80z"/>
<path d="M2000 2720 l0 -80 80 0 80 0 0 80 0 80 -80 0 -80 0 0 -80z"/>
<path d="M2320 2720 l0 -80 80 0 80 0 0 80 0 80 -80 0 -80 0 0 -80z"/>
<path d="M2640 2720 l0 -80 80 0 80 0 0 80 0 80 -80 0 -80 0 0 -80z"/>
<path d="M2960 2720 l0 -80 80 0 80 0 0 80 0 80 -80 0 -80 0 0 -80z"/>
<path d="M2000 2400 l0 -80 80 0 80 0 0 80 0 80 -80 0 -80 0 0 -80z"/>
<path d="M2320 2400 l0 -80 80 0 80 0 0 80 0 80 -80 0 -80 0 0 -80z"/>
<path d="M2640 2400 l0 -80 80 0 80 0 0 80 0 80 -80 0 -80 0 0 -80z"/>
<path d="M2960 2400 l0 -80 80 0 80 0 0 80 0 80 -80 0 -80 0 0 -80z"/>
<path d="M2000 2080 l0 -80 80 0 80 0 0 80 0 80 -80 0 -80 0 0 -80z"/>
<path d="M2320 2080 l0 -80 80 0 80 0 0 80 0 80 -80 0 -80 0 0 -80z"/>
<path d="M2640 2080 l0 -80 80 0 80 0 0 80 0 80 -80 0 -80 0 0 -80z"/>
<path d="M2960 2080 l0 -80 80 0 80 0 0 80 0 80 -80 0 -80 0 0 -80z"/>
<path d="M1420 1824 c-142 -52 -229 -183 -218 -327 26 -318 443 -407 597 -127
33 60 36 71 36 150 0 78 -3 91 -34 148 -58 106 -144 161 -265 168 -50 3 -84
-1 -116 -12z m163 -158 c103 -43 128 -177 48 -257 -65 -65 -157 -65 -222 0
-124 123 13 325 174 257z"/>
<path d="M462 577 c-61 -62 -112 -117 -112 -123 0 -13 92 -104 106 -104 5 0
61 52 124 115 l114 115 -54 55 c-30 30 -57 55 -60 55 -3 0 -56 -51 -118 -113z"/>
<path d="M4477 642 c-26 -26 -47 -52 -47 -58 0 -5 52 -61 115 -124 l115 -115
57 58 58 57 -115 115 c-63 63 -119 115 -125 115 -6 0 -32 -22 -58 -48z"/>
</g>
</svg>
