<?xml version="1.0" standalone="no"?>
<svg version="1.0" xmlns="http://www.w3.org/2000/svg"
 width="512.000000pt" height="512.000000pt" viewBox="0 0 512.000000 512.000000"
 preserveAspectRatio="xMidYMid meet">

<g transform="translate(0.000000,512.000000) scale(0.100000,-0.100000)"
fill="#9a35ed" stroke="none">
<path d="M105 4375 c-25 -24 -25 -26 -25 -215 0 -189 0 -191 25 -215 22 -23
32 -25 120 -25 l95 0 0 -80 0 -80 -80 0 -80 0 0 -80 0 -80 80 0 80 0 0 -160 0
-160 -80 0 -80 0 0 -80 0 -80 80 0 80 0 0 -160 0 -160 -80 0 -80 0 0 -80 0
-80 80 0 80 0 0 -160 0 -160 -80 0 -80 0 0 -80 0 -80 80 0 80 0 0 -160 0 -160
-80 0 -80 0 0 -80 0 -80 80 0 80 0 0 -160 0 -160 -80 0 -80 0 0 -80 0 -80 80
0 80 0 0 -215 c0 -286 -19 -265 240 -265 189 0 191 0 215 25 23 22 25 32 25
120 l0 95 254 0 c322 0 299 -13 306 171 4 111 8 134 22 143 13 8 23 8 35 0 16
-10 19 -35 23 -223 5 -209 5 -213 29 -232 22 -18 42 -19 291 -19 249 0 269 1
291 19 23 18 24 25 29 192 4 149 7 173 23 183 12 8 22 8 35 0 15 -10 18 -34
22 -183 5 -167 6 -174 29 -192 22 -18 51 -19 851 -19 800 0 829 1 851 19 23
18 24 25 29 192 4 149 7 173 23 183 12 8 22 8 35 0 15 -10 18 -34 22 -183 5
-167 6 -174 29 -192 22 -18 44 -19 373 -19 l349 0 24 25 c25 24 25 26 25 215
0 189 0 191 -25 215 -23 24 -31 25 -135 25 -104 0 -112 1 -135 25 -33 32 -33
78 0 110 l24 25 231 0 231 0 24 25 25 24 0 1351 0 1351 -25 24 -24 25 -2096 0
-2095 0 0 55 c0 46 -4 60 -25 80 l-24 25 -311 0 -311 0 -24 -25z m535 -1815
l0 -1680 -80 0 -80 0 0 1575 0 1576 -25 24 c-22 23 -32 25 -120 25 l-95 0 0
80 0 80 200 0 200 0 0 -1680z m4240 280 l0 -1240 -176 0 c-214 0 -241 -7 -309
-75 -102 -101 -102 -229 0 -330 56 -57 102 -75 189 -75 l56 0 0 -80 0 -80
-239 0 -239 0 -4 132 c-3 119 -5 137 -27 171 -64 104 -216 127 -303 46 l-30
-29 -758 0 -758 0 -30 29 c-87 80 -233 60 -300 -42 -25 -38 -27 -49 -30 -174
l-4 -133 -158 0 -158 0 -4 173 c-3 161 -5 175 -27 210 -13 21 -42 50 -64 65
-34 23 -52 27 -107 27 -55 0 -73 -4 -107 -27 -66 -44 -87 -87 -91 -195 l-4
-93 -199 0 -199 0 0 200 0 200 135 0 c131 0 137 1 160 25 l25 24 0 871 0 871
-25 24 c-23 24 -29 25 -160 25 l-135 0 0 360 0 360 2040 0 2040 0 0 -1240z
m-3920 280 l0 -80 -80 0 -80 0 0 80 0 80 80 0 80 0 0 -80z m0 -320 l0 -80 -80
0 -80 0 0 80 0 80 80 0 80 0 0 -80z m0 -320 l0 -80 -80 0 -80 0 0 80 0 80 80
0 80 0 0 -80z m0 -320 l0 -80 -80 0 -80 0 0 80 0 80 80 0 80 0 0 -80z m0 -360
l0 -120 -80 0 -80 0 0 120 0 120 80 0 80 0 0 -120z m1520 -760 l0 -80 -80 0
-80 0 0 80 0 80 80 0 80 0 0 -80z m320 0 l0 -80 -80 0 -80 0 0 80 0 80 80 0
80 0 0 -80z m320 0 l0 -80 -80 0 -80 0 0 80 0 80 80 0 80 0 0 -80z m320 0 l0
-80 -80 0 -80 0 0 80 0 80 80 0 80 0 0 -80z m320 0 l0 -80 -80 0 -80 0 0 80 0
80 80 0 80 0 0 -80z"/>
<path d="M960 3920 l0 -80 640 0 640 0 0 80 0 80 -640 0 -640 0 0 -80z"/>
<path d="M2555 3991 c-45 -20 -70 -60 -70 -112 0 -42 5 -53 33 -81 28 -28 39
-33 82 -33 43 0 54 5 82 33 28 28 33 39 33 82 0 42 -5 54 -31 81 -33 33 -92
46 -129 30z m75 -86 c26 -32 -13 -81 -47 -59 -35 22 -23 74 17 74 10 0 23 -7
30 -15z"/>
<path d="M2905 3975 c-24 -23 -25 -29 -25 -160 l0 -135 -495 0 -496 0 -24 -25
c-25 -24 -25 -26 -25 -215 0 -189 0 -191 25 -215 23 -24 29 -25 160 -25 l135
0 0 -360 0 -360 -135 0 c-131 0 -137 -1 -160 -25 -25 -24 -25 -26 -25 -215 0
-189 0 -191 25 -215 23 -24 29 -25 160 -25 l135 0 0 -95 c0 -88 2 -98 25 -120
l24 -25 1231 0 1231 0 24 25 25 24 0 911 0 911 -25 24 c-23 24 -29 25 -160 25
l-135 0 0 135 c0 131 -1 137 -25 160 l-24 25 -711 0 -711 0 -24 -25z m295
-215 l0 -80 -80 0 -80 0 0 80 0 80 80 0 80 0 0 -80z m1040 0 l0 -80 -440 0
-440 0 0 80 0 80 440 0 440 0 0 -80z m-2080 -320 l0 -80 -80 0 -80 0 0 80 0
80 80 0 80 0 0 -80z m2080 41 l0 -40 -467 -3 -468 -3 -88 -31 c-48 -18 -113
-47 -144 -65 -78 -46 -210 -180 -256 -259 -166 -287 -110 -659 133 -883 85
-78 157 -121 267 -160 82 -29 97 -31 223 -31 119 0 145 4 215 27 115 38 199
91 290 182 133 133 200 279 212 459 13 206 -59 399 -205 549 l-56 57 227 0
228 0 24 25 c23 22 25 32 25 120 l0 95 80 0 80 0 0 -800 0 -800 -1120 0 -1120
0 0 800 0 800 960 0 960 0 0 -39z m-880 -291 c0 -61 -3 -80 -14 -80 -32 0
-156 -73 -195 -116 -39 -42 -101 -153 -101 -181 0 -9 -23 -13 -81 -13 l-82 0
6 33 c19 115 92 233 202 323 70 58 184 111 243 113 21 1 22 -2 22 -79z m258
59 c159 -54 297 -192 351 -351 33 -99 34 -98 -59 -98 -61 0 -80 3 -80 14 0 32
-73 156 -116 195 -42 39 -153 101 -181 101 -9 0 -13 23 -13 80 0 93 -1 92 98
59z m-104 -301 c55 -16 138 -99 154 -154 28 -94 8 -169 -63 -239 -101 -102
-229 -102 -330 0 -102 101 -102 229 0 330 70 71 145 90 239 63z m-464 -320 c0
-29 62 -140 101 -182 39 -43 163 -116 195 -116 11 0 14 -19 14 -80 0 -93 1
-92 -98 -59 -158 53 -298 193 -351 351 -33 99 -34 98 59 98 57 0 80 -4 80 -12z
m940 -6 c0 -36 -43 -143 -79 -199 -72 -109 -177 -193 -293 -232 -99 -33 -98
-34 -98 59 0 57 4 80 13 80 28 0 139 62 181 101 43 39 116 163 116 195 0 11
19 14 80 14 70 0 80 -2 80 -18z m-1830 -382 l0 -80 -80 0 -80 0 0 80 0 80 80
0 80 0 0 -80z"/>
<path d="M4635 3991 c-45 -20 -70 -60 -70 -112 0 -42 5 -53 33 -81 28 -28 39
-33 82 -33 43 0 54 5 82 33 28 28 33 39 33 82 0 42 -5 54 -31 81 -33 33 -92
46 -129 30z m75 -86 c26 -32 -13 -81 -47 -59 -35 22 -23 74 17 74 10 0 23 -7
30 -15z"/>
<path d="M1035 3671 c-45 -20 -70 -60 -70 -112 0 -42 5 -53 33 -81 28 -28 39
-33 82 -33 43 0 54 5 82 33 28 28 33 39 33 82 0 42 -5 54 -31 81 -33 33 -92
46 -129 30z m75 -86 c26 -32 -13 -81 -47 -59 -35 22 -23 74 17 74 10 0 23 -7
30 -15z"/>
<path d="M1305 3655 c-25 -24 -25 -26 -25 -215 0 -257 -17 -240 240 -240 257
0 240 -17 240 240 0 257 17 240 -240 240 -189 0 -191 0 -215 -25z m295 -215
l0 -80 -80 0 -80 0 0 80 0 80 80 0 80 0 0 -80z"/>
<path d="M1595 3111 c-45 -20 -70 -60 -70 -112 0 -42 5 -53 33 -81 28 -28 39
-33 82 -33 43 0 54 5 82 33 28 28 33 39 33 82 0 42 -5 54 -31 81 -33 33 -92
46 -129 30z m75 -86 c26 -32 -13 -81 -47 -59 -35 22 -23 74 17 74 10 0 23 -7
30 -15z"/>
<path d="M1915 3111 c-45 -20 -70 -60 -70 -112 0 -42 5 -53 33 -81 28 -28 39
-33 82 -33 43 0 54 5 82 33 28 28 33 39 33 82 0 42 -5 54 -31 81 -33 33 -92
46 -129 30z m75 -86 c26 -32 -13 -81 -47 -59 -35 22 -23 74 17 74 10 0 23 -7
30 -15z"/>
<path d="M1595 2791 c-45 -20 -70 -60 -70 -112 0 -42 5 -53 33 -81 28 -28 39
-33 82 -33 43 0 54 5 82 33 28 28 33 39 33 82 0 42 -5 54 -31 81 -33 33 -92
46 -129 30z m75 -86 c26 -32 -13 -81 -47 -59 -35 22 -23 74 17 74 10 0 23 -7
30 -15z"/>
<path d="M1915 2791 c-45 -20 -70 -60 -70 -112 0 -42 5 -53 33 -81 28 -28 39
-33 82 -33 43 0 54 5 82 33 28 28 33 39 33 82 0 42 -5 54 -31 81 -33 33 -92
46 -129 30z m75 -86 c26 -32 -13 -81 -47 -59 -35 22 -23 74 17 74 10 0 23 -7
30 -15z"/>
<path d="M1915 1911 c-45 -20 -70 -60 -70 -112 0 -42 5 -53 33 -81 28 -28 39
-33 82 -33 43 0 54 5 82 33 28 28 33 39 33 82 0 42 -5 54 -31 81 -33 33 -92
46 -129 30z m75 -86 c26 -32 -13 -81 -47 -59 -35 22 -23 74 17 74 10 0 23 -7
30 -15z"/>
<path d="M2320 1520 l0 -80 720 0 720 0 0 80 0 80 -720 0 -720 0 0 -80z"/>
<path d="M955 1431 c-45 -20 -70 -60 -70 -112 0 -42 5 -53 33 -81 28 -28 39
-33 82 -33 43 0 54 5 82 33 28 28 33 39 33 82 0 42 -5 54 -31 81 -33 33 -92
46 -129 30z m75 -86 c26 -32 -13 -81 -47 -59 -35 22 -23 74 17 74 10 0 23 -7
30 -15z"/>
</g>
</svg>
